<svg width="517" height="462" viewBox="0 0 517 462" fill="none" xmlns="http://www.w3.org/2000/svg">
<path d="M197.322 209.247C195.167 209.055 192.582 209.055 190.213 209.247C138.944 207.707 98.23 170.17 98.23 123.97C98.23 76.8075 140.882 38.5 193.875 38.5C246.652 38.5 289.52 76.8075 289.52 123.97C289.305 170.17 248.591 207.707 197.322 209.247Z" stroke="#EDF6F9" stroke-width="30" stroke-linecap="round" stroke-linejoin="round"/>
<path d="M353.499 77C395.289 77 428.894 107.223 428.894 144.375C428.894 180.757 396.582 210.402 356.299 211.75C354.576 211.558 352.637 211.558 350.698 211.75" stroke="#EDF6F9" stroke-width="30" stroke-linecap="round" stroke-linejoin="round"/>
<path d="M89.6133 280.28C37.4824 311.465 37.4824 362.285 89.6133 393.277C148.853 428.697 246.006 428.697 305.245 393.277C357.376 362.092 357.376 311.273 305.245 280.28C246.221 245.053 149.068 245.053 89.6133 280.28Z" stroke="#EDF6F9" stroke-width="30" stroke-linecap="round" stroke-linejoin="round"/>
<path d="M395.074 385C410.584 382.112 425.233 376.53 437.296 368.252C470.901 345.73 470.901 308.577 437.296 286.055C425.448 277.97 411.015 272.58 395.72 269.5" stroke="#EDF6F9" stroke-width="30" stroke-linecap="round" stroke-linejoin="round"/>
</svg>
