<svg width="26" height="25" viewBox="0 0 26 25" fill="none" xmlns="http://www.w3.org/2000/svg">
<path d="M24.9492 8.05462C24.9492 7.27571 24.9492 6.88626 24.8055 6.70592C24.6807 6.54944 24.4936 6.4664 24.3021 6.48255C24.0815 6.50116 23.8245 6.77654 23.3104 7.32731L18.9492 12L23.3104 16.6727C23.8244 17.2235 24.0815 17.4988 24.3021 17.5175C24.4936 17.5336 24.6807 17.4506 24.8055 17.2941C24.9492 17.1137 24.9492 16.7243 24.9492 15.9454V8.05462Z" stroke="white" stroke-width="1.9" stroke-linecap="round" stroke-linejoin="round"/>
<path d="M0.949219 9.17143C0.949219 7.01123 0.949219 5.93112 1.3416 5.10604C1.68674 4.38027 2.23747 3.7902 2.91485 3.4204C3.68494 3 4.69303 3 6.70922 3H13.1892C15.2054 3 16.2135 3 16.9836 3.4204C17.661 3.7902 18.2117 4.38027 18.5568 5.10604C18.9492 5.93112 18.9492 7.01123 18.9492 9.17143V14.8286C18.9492 16.9888 18.9492 18.0689 18.5568 18.894C18.2117 19.6197 17.661 20.2098 16.9836 20.5796C16.2135 21 15.2054 21 13.1892 21H6.70922C4.69303 21 3.68494 21 2.91485 20.5796C2.23747 20.2098 1.68674 19.6197 1.3416 18.894C0.949219 18.0689 0.949219 16.9888 0.949219 14.8286V9.17143Z" stroke="white" stroke-width="1.9" stroke-linecap="round" stroke-linejoin="round"/>
</svg>
