<svg width="26" height="26" viewBox="0 0 26 26" fill="none" xmlns="http://www.w3.org/2000/svg">
<path d="M4.54922 4.5502C2.56099 4.5502 0.949219 6.16197 0.949219 8.1502V17.7502C0.949219 19.7384 2.56099 21.3502 4.54922 21.3502H15.3492C16.9724 21.3502 18.3447 20.2759 18.7939 18.7996M18.9492 12.9502L23.3104 8.58902C23.8245 8.07497 24.0815 7.81794 24.3021 7.80057C24.4936 7.7855 24.6807 7.86301 24.8055 8.00906C24.9492 8.17737 24.9492 8.54086 24.9492 9.26784V16.6326C24.9492 17.3595 24.9492 17.723 24.8055 17.8913C24.6807 18.0374 24.4936 18.1149 24.3021 18.0998C24.0815 18.0825 23.8244 17.8254 23.3104 17.3114L18.9492 12.9502ZM18.9492 12.9502V10.3102C18.9492 8.29401 18.9492 7.28591 18.5568 6.51583C18.2117 5.83845 17.661 5.28772 16.9836 4.94257C16.2135 4.5502 15.2054 4.5502 13.1892 4.5502H9.94922M0.949219 0.950195L24.9492 24.9502" stroke="white" stroke-width="1.9" stroke-linecap="round" stroke-linejoin="round"/>
</svg>
