<svg width="25" height="25" viewBox="0 0 25 25" fill="none" xmlns="http://www.w3.org/2000/svg">
<path d="M5.33333 17.5556C5.33333 18.5889 5.33333 19.1055 5.44691 19.5294C5.75514 20.6797 6.65363 21.5782 7.80394 21.8864C8.22783 22 8.74448 22 9.77778 22H16.6667C18.5335 22 19.4669 22 20.18 21.6367C20.8072 21.3171 21.3171 20.8072 21.6367 20.18C22 19.4669 22 18.5335 22 16.6667V7.33333C22 5.46649 22 4.53307 21.6367 3.82003C21.3171 3.19282 20.8072 2.68289 20.18 2.36331C19.4669 2 18.5335 2 16.6667 2H9.77778C8.74448 2 8.22782 2 7.80394 2.11358C6.65363 2.4218 5.75514 3.3203 5.44691 4.4706C5.33333 4.89449 5.33333 5.41114 5.33333 6.44444M12 7.55556L16.4444 12M16.4444 12L12 16.4444M16.4444 12H2" stroke="white" stroke-width="1.9" stroke-linecap="round" stroke-linejoin="round"/>
</svg>
