<svg width="25" height="26" viewBox="0 0 25 26" fill="none" xmlns="http://www.w3.org/2000/svg">
<path d="M15.3 9.8302V4.5502C15.3 2.56197 13.8225 0.950195 12 0.950195C10.7046 0.950195 9.58357 1.76442 9.04342 2.94932M12 21.3502V24.9502M12 21.3502C7.74741 21.3502 4.3 17.5894 4.3 12.9502V10.5502M12 21.3502C16.2526 21.3502 19.7 17.5894 19.7 12.9502V10.5502M7.6 24.9502H16.4M1 0.950195L23 24.9502M12 16.5502C10.1775 16.5502 8.7 14.9384 8.7 12.9502V9.3502L14.3349 15.4942C13.7376 16.1466 12.912 16.5502 12 16.5502Z" stroke="white" stroke-width="1.9" stroke-linecap="round" stroke-linejoin="round"/>
</svg>
