<svg width="25" height="25" viewBox="0 0 25 25" fill="none" xmlns="http://www.w3.org/2000/svg">
<path d="M23 22V19.7778C23 17.7068 21.5978 15.9667 19.7 15.4734M15.85 2.32307C17.4625 2.98238 18.6 4.57923 18.6 6.44444C18.6 8.30965 17.4625 9.9065 15.85 10.5658M17.5 22C17.5 19.9291 17.5 18.8937 17.1651 18.077C16.7185 16.9879 15.8619 16.1227 14.7838 15.6716C13.9752 15.3333 12.9501 15.3333 10.9 15.3333H7.6C5.54986 15.3333 4.52479 15.3333 3.71619 15.6716C2.63807 16.1227 1.7815 16.9879 1.33493 18.077C1 18.8937 1 19.9291 1 22M13.65 6.44444C13.65 8.89904 11.6801 10.8889 9.25 10.8889C6.81995 10.8889 4.85 8.89904 4.85 6.44444C4.85 3.98985 6.81995 2 9.25 2C11.6801 2 13.65 3.98985 13.65 6.44444Z" stroke="white" stroke-width="1.9" stroke-linecap="round" stroke-linejoin="round"/>
</svg>
